<svg width="12" height="12" viewBox="0 0 12 12" fill="none" xmlns="http://www.w3.org/2000/svg">
<path d="M2.37902 0.273433C2.35176 0.191106 2.29848 0.119868 2.22721 0.0704539C2.15594 0.0210395 2.07055 -0.00387468 1.98389 -0.000534707C1.89723 0.00280526 1.814 0.0342185 1.74675 0.0889717C1.6795 0.143725 1.63186 0.218852 1.61102 0.303033L0.0110179 6.70303C-0.00682604 6.77502 -0.00430551 6.85055 0.0182979 6.92118C0.0409014 6.99182 0.0826976 7.05478 0.139018 7.10303L5.73902 11.903C5.81153 11.9652 5.9039 11.9994 5.99942 11.9994C6.09494 11.9994 6.18731 11.9652 6.25982 11.903L11.8598 7.10303C11.9161 7.05478 11.9579 6.99182 11.9805 6.92118C12.0031 6.85055 12.0057 6.77502 11.9878 6.70303L10.3878 0.303033C10.367 0.218852 10.3193 0.143725 10.2521 0.0889717C10.1848 0.0342185 10.1016 0.00280526 10.0149 -0.000534707C9.92829 -0.00387468 9.84289 0.0210395 9.77162 0.0704539C9.70036 0.119868 9.64708 0.191106 9.61982 0.273433L8.11182 4.79983H3.88782L2.37902 0.273433Z" fill="#4F4F4F"/>
</svg>
