<svg width="12" height="10" viewBox="0 0 12 10" fill="none" xmlns="http://www.w3.org/2000/svg">
<path d="M12 2.65867V8.25C12 9.21667 11.2579 10 10.3421 10H1.65789C1.21819 10 0.796502 9.81563 0.485586 9.48744C0.17467 9.15925 0 8.71413 0 8.25V2.65867L5.80989 6.032C5.92832 6.10067 6.072 6.10067 6.1901 6.032L12 2.65833V2.65867ZM10.3421 7.52609e-09C10.7749 4.24518e-05 11.1905 0.178718 11.5002 0.497859C11.8098 0.817 11.989 1.2513 11.9994 1.708L6 5.19133L0.000631533 1.70767L0.00126322 1.67767C0.0189482 1.22642 0.201223 0.799861 0.509971 0.487192C0.818719 0.174524 1.23003 -4.1851e-05 1.65789 7.52609e-09H10.3421Z" fill="#4F4F4F"/>
</svg>
