<svg width="12" height="12" viewBox="0 0 12 12" fill="none" xmlns="http://www.w3.org/2000/svg">
<path d="M5.07333 6.88C5.76916 7.58588 6.61109 8.13086 7.54 8.47666L8.79667 7.47666C8.83392 7.45101 8.87809 7.43727 8.92333 7.43727C8.96857 7.43727 9.01274 7.45101 9.05 7.47666L11.3833 8.98C11.4719 9.03325 11.5469 9.10638 11.6024 9.1936C11.6578 9.28081 11.6923 9.37973 11.7029 9.48254C11.7136 9.58535 11.7002 9.68923 11.6638 9.78597C11.6275 9.88272 11.5691 9.96969 11.4933 10.04L10.4 11.12C10.2434 11.2747 10.051 11.3882 9.83985 11.4505C9.62871 11.5127 9.40546 11.5217 9.19 11.4767C7.04074 11.0328 5.05971 9.99317 3.47333 8.47666C1.92216 6.94508 0.848756 4.99628 0.383332 2.86666C0.337354 2.65454 0.34695 2.43414 0.41119 2.22682C0.475431 2.0195 0.592137 1.83229 0.749998 1.68333L1.88333 0.589997C1.95346 0.517926 2.03899 0.462655 2.13351 0.428323C2.22803 0.393991 2.3291 0.381486 2.42914 0.391747C2.52917 0.402007 2.62559 0.434766 2.71118 0.48757C2.79676 0.540375 2.86929 0.611857 2.92333 0.696664L4.47667 3C4.50346 3.03617 4.51792 3.07999 4.51792 3.125C4.51792 3.17001 4.50346 3.21383 4.47667 3.25L3.45333 4.48C3.80853 5.39031 4.36191 6.21014 5.07333 6.88Z" fill="#4F4F4F"/>
</svg>
